<svg width="80" height="80" viewBox="0 0 80 80" fill="none" xmlns="http://www.w3.org/2000/svg">
<path d="M0 0H80V80H0V0Z" fill="#CC1917"/>
<path d="M10 40H70V41H10V40Z" fill="#F0D3D3"/>
<path d="M31.824 23.2878C32.8 23.5598 33.568 24.0558 34.128 24.7758C34.688 25.4798 34.968 26.3758 34.968 27.4638C34.968 28.9198 34.416 30.0398 33.312 30.8238C32.224 31.6078 30.632 31.9998 28.536 31.9998H20.52V15.1998H28.056C29.976 15.1998 31.456 15.5838 32.496 16.3518C33.552 17.1198 34.08 18.1838 34.08 19.5438C34.08 20.4238 33.872 21.1838 33.456 21.8238C33.056 22.4638 32.512 22.9518 31.824 23.2878ZM22.92 17.1438V22.5198H27.84C29.072 22.5198 30.016 22.2958 30.672 21.8478C31.344 21.3838 31.68 20.7118 31.68 19.8318C31.68 18.9518 31.344 18.2878 30.672 17.8398C30.016 17.3758 29.072 17.1438 27.84 17.1438H22.92ZM28.44 30.0558C29.8 30.0558 30.824 29.8318 31.512 29.3838C32.2 28.9358 32.544 28.2318 32.544 27.2718C32.544 25.3998 31.176 24.4638 28.44 24.4638H22.92V30.0558H28.44Z" fill="#F0D3D3"/>
<path d="M38.6841 15.1998H41.0841V31.9998H38.6841V15.1998Z" fill="#F0D3D3"/>
<path d="M57.7538 23.5038H60.0578V30.0558C59.2258 30.7438 58.2578 31.2718 57.1538 31.6398C56.0498 32.0078 54.8978 32.1918 53.6978 32.1918C52.0018 32.1918 50.4738 31.8238 49.1138 31.0878C47.7538 30.3358 46.6818 29.3118 45.8978 28.0158C45.1298 26.7038 44.7458 25.2318 44.7458 23.5998C44.7458 21.9678 45.1298 20.4958 45.8978 19.1838C46.6818 17.8718 47.7538 16.8478 49.1138 16.1118C50.4898 15.3758 52.0338 15.0078 53.7458 15.0078C55.0898 15.0078 56.3058 15.2318 57.3938 15.6798C58.4978 16.1118 59.4338 16.7518 60.2018 17.5998L58.7138 19.0878C57.3698 17.7918 55.7458 17.1438 53.8418 17.1438C52.5618 17.1438 51.4098 17.4238 50.3858 17.9838C49.3778 18.5278 48.5858 19.2958 48.0098 20.2878C47.4338 21.2638 47.1458 22.3678 47.1458 23.5998C47.1458 24.8158 47.4338 25.9198 48.0098 26.9118C48.5858 27.8878 49.3778 28.6558 50.3858 29.2158C51.4098 29.7758 52.5538 30.0558 53.8178 30.0558C55.3218 30.0558 56.6338 29.6958 57.7538 28.9758V23.5038Z" fill="#F0D3D3"/>
<path d="M17.1878 47.7999C18.6172 47.7999 19.7372 48.1413 20.5478 48.8239C21.3585 49.5066 21.7639 50.4453 21.7639 51.6399C21.7639 52.8346 21.3585 53.7733 20.5478 54.4559C19.7372 55.1279 18.6172 55.4639 17.1878 55.4639H14.1798V58.9999H12.9958V47.7999H17.1878ZM17.1558 54.4239C18.2652 54.4239 19.1132 54.1839 19.6999 53.7039C20.2865 53.2133 20.5798 52.5253 20.5798 51.6399C20.5798 50.7333 20.2865 50.0399 19.6999 49.5599C19.1132 49.0693 18.2652 48.8239 17.1558 48.8239H14.1798V54.4239H17.1558Z" fill="#F0D3D3"/>
<path d="M23.8652 50.5839H25.0012V58.9999H23.8652V50.5839ZM24.4412 48.7439C24.2066 48.7439 24.0092 48.6639 23.8492 48.5039C23.6892 48.3439 23.6092 48.1519 23.6092 47.9279C23.6092 47.7146 23.6892 47.5279 23.8492 47.3679C24.0092 47.2079 24.2066 47.1279 24.4412 47.1279C24.6759 47.1279 24.8732 47.2079 25.0332 47.3679C25.1932 47.5173 25.2732 47.6986 25.2732 47.9119C25.2732 48.1466 25.1932 48.3439 25.0332 48.5039C24.8732 48.6639 24.6759 48.7439 24.4412 48.7439Z" fill="#F0D3D3"/>
<path d="M31.6501 59.0799C30.8181 59.0799 30.0714 58.8986 29.4101 58.5359C28.7594 58.1733 28.2474 57.6666 27.8741 57.0159C27.5008 56.3546 27.3141 55.6133 27.3141 54.7919C27.3141 53.9706 27.5008 53.2346 27.8741 52.5839C28.2474 51.9333 28.7594 51.4266 29.4101 51.0639C30.0714 50.7013 30.8181 50.5199 31.6501 50.5199C32.3754 50.5199 33.0208 50.6639 33.5861 50.9519C34.1621 51.2293 34.6154 51.6399 34.9461 52.1839L34.0981 52.7599C33.8208 52.3439 33.4688 52.0346 33.0421 51.8319C32.6154 51.6186 32.1514 51.5119 31.6501 51.5119C31.0421 51.5119 30.4928 51.6506 30.0021 51.9279C29.5221 52.1946 29.1434 52.5786 28.8661 53.0799C28.5994 53.5813 28.4661 54.1519 28.4661 54.7919C28.4661 55.4426 28.5994 56.0186 28.8661 56.5199C29.1434 57.0106 29.5221 57.3946 30.0021 57.6719C30.4928 57.9386 31.0421 58.0719 31.6501 58.0719C32.1514 58.0719 32.6154 57.9706 33.0421 57.7679C33.4688 57.5653 33.8208 57.2559 34.0981 56.8399L34.9461 57.4159C34.6154 57.9599 34.1621 58.3759 33.5861 58.6639C33.0101 58.9413 32.3648 59.0799 31.6501 59.0799Z" fill="#F0D3D3"/>
<path d="M41.7035 58.4879C41.4901 58.6799 41.2235 58.8293 40.9035 58.9359C40.5941 59.0319 40.2688 59.0799 39.9275 59.0799C39.1381 59.0799 38.5301 58.8666 38.1035 58.4399C37.6768 58.0133 37.4635 57.4106 37.4635 56.6319V51.5439H35.9595V50.5839H37.4635V48.7439H38.5995V50.5839H41.1595V51.5439H38.5995V56.5679C38.5995 57.0693 38.7221 57.4533 38.9675 57.7199C39.2235 57.9759 39.5861 58.1039 40.0555 58.1039C40.2901 58.1039 40.5141 58.0666 40.7275 57.9919C40.9515 57.9173 41.1435 57.8106 41.3035 57.6719L41.7035 58.4879Z" fill="#F0D3D3"/>
<path d="M51.3555 50.5839V58.9999H50.2675V57.4639C49.9688 57.9759 49.5581 58.3759 49.0355 58.6639C48.5128 58.9413 47.9155 59.0799 47.2435 59.0799C46.1448 59.0799 45.2755 58.7759 44.6355 58.1679C44.0061 57.5493 43.6915 56.6479 43.6915 55.4639V50.5839H44.8275V55.3519C44.8275 56.2373 45.0461 56.9093 45.4835 57.3679C45.9208 57.8266 46.5448 58.0559 47.3555 58.0559C48.2408 58.0559 48.9395 57.7893 49.4515 57.2559C49.9635 56.7119 50.2195 55.9599 50.2195 54.9999V50.5839H51.3555Z" fill="#F0D3D3"/>
<path d="M55.6251 52.2319C55.8918 51.6666 56.2864 51.2399 56.8091 50.9519C57.3424 50.6639 57.9984 50.5199 58.7771 50.5199V51.6239L58.5051 51.6079C57.6198 51.6079 56.9264 51.8799 56.4251 52.4239C55.9238 52.9679 55.6731 53.7306 55.6731 54.7119V58.9999H54.5371V50.5839H55.6251V52.2319Z" fill="#F0D3D3"/>
<path d="M68.0839 55.1439H61.0438C61.1078 56.0186 61.4438 56.7279 62.0518 57.2719C62.6599 57.8053 63.4278 58.0719 64.3558 58.0719C64.8785 58.0719 65.3585 57.9813 65.7958 57.7999C66.2332 57.6079 66.6119 57.3306 66.9319 56.9679L67.5718 57.7039C67.1985 58.1519 66.7292 58.4933 66.1638 58.7279C65.6092 58.9626 64.9958 59.0799 64.3238 59.0799C63.4599 59.0799 62.6918 58.8986 62.0198 58.5359C61.3585 58.1626 60.8412 57.6506 60.4678 56.9999C60.0945 56.3493 59.9078 55.6133 59.9078 54.7919C59.9078 53.9706 60.0838 53.2346 60.4358 52.5839C60.7985 51.9333 61.2892 51.4266 61.9078 51.0639C62.5372 50.7013 63.2412 50.5199 64.0198 50.5199C64.7985 50.5199 65.4972 50.7013 66.1158 51.0639C66.7345 51.4266 67.2198 51.9333 67.5718 52.5839C67.9239 53.2239 68.0998 53.9599 68.0998 54.7919L68.0839 55.1439ZM64.0198 51.4959C63.2092 51.4959 62.5265 51.7573 61.9718 52.2799C61.4278 52.7919 61.1185 53.4639 61.0438 54.2959H67.0118C66.9372 53.4639 66.6225 52.7919 66.0678 52.2799C65.5238 51.7573 64.8412 51.4959 64.0198 51.4959Z" fill="#F0D3D3"/>
</svg>
